<?xml version="1.0" encoding="UTF-8"?>
<svg width="941px" height="940px" viewBox="0 0 941 940" version="1.1" xmlns="http://www.w3.org/2000/svg" xmlns:xlink="http://www.w3.org/1999/xlink">
    <!-- Generator: Sketch 3.8.3 (29802) - http://www.bohemiancoding.com/sketch -->
    <title>Group</title>
    <desc>Created with Sketch.</desc>
    <defs></defs>
    <g id="Page-1" stroke="none" stroke-width="1" fill="none" fill-rule="evenodd">
        <g id="Group" transform="translate(470.400000, 469.600000) scale(1, -1) translate(-470.400000, -469.600000) translate(0.400000, -0.400000)" fill="#000000">
            <path d="M435.231557,938.6 C434.364754,937.7 425.889344,934.9 422.422131,934.2 C421.07377,934 418.473361,933.5 416.643443,933.2 C414.813525,932.8 411.346311,932.4 408.938525,932.2 C384.282787,930.1 355.967213,916.4 337.764344,897.7 C320.428279,879.9 307.907787,856.3 298.661885,824 C297.313525,819.1 295.868852,814.4 295.579918,813.6 C295.290984,812.8 294.905738,811.7 294.713115,811.1 C293.942623,808.5 288.54918,784.2 288.067623,781.3 C287.778689,779.6 287.104508,775.6 286.622951,772.5 C286.045082,769.4 285.467213,764.9 285.27459,762.5 C283.540984,742 279.688525,739.6 255.321721,744.1 C248.387295,745.4 241.067623,746.7 238.94877,747 C236.829918,747.3 234.036885,747.8 232.688525,748 C231.340164,748.3 227.680328,748.8 224.502049,749.1 C221.32377,749.5 217.663934,749.9 216.315574,750.1 C213.907787,750.4 206.010246,751.2 196.090164,752.1 C172.397541,754.2 133.19877,754.2 113.262295,752.1 C111.432377,751.9 107.098361,751.5 103.631148,751.1 C73.3893443,748.3 51.4303279,740.9 35.25,728.1 C22.6331967,718 10.4979508,699.7 7.80122951,686.5 C7.41598361,684.6 6.6454918,682.5 5.97131148,681.7 C5.39344262,680.9 5.1045082,680.1 5.29713115,679.9 C5.4897541,679.7 5.1045082,676.8 4.52663934,673.3 C3.94877049,669.9 3.27459016,666.1 3.17827869,664.9 C2.98565574,663.7 2.21516393,661.9 1.34836066,660.9 C0.192622951,659.4 -0.0963114754,656.5 0.0963114754,644.6 C0.288934426,631.6 0.577868852,629 3.37090164,619.6 C5.00819672,613.8 6.6454918,607.5 6.93442623,605.6 C7.22336066,603.7 7.70491803,601.8 7.89754098,601.5 C8.09016393,601.2 8.47540984,599.4 8.76434426,597.5 C15.3135246,558.8 31.8790984,522.1 58.3647541,487.6 C65.5881148,478.2 85.0430328,457.1 92.5553279,450.6 C103.534836,441 107.868852,437.5 122.411885,426.1 C153.231557,401.8 185.014344,377.1 209.092213,358.9 C239.526639,335.7 240.682377,334.8 243.186475,330.8 C246.07582,326.3 247.905738,317.9 248.579918,306.6 C248.868852,301.4 249.254098,295.8 249.543033,294.1 C249.831967,292.5 250.217213,289.4 250.506148,287.4 C256.57377,241.4 271.983607,204.5 294.713115,181 C299.047131,176.6 315.805328,164.6 317.731557,164.6 C318.983607,164.6 330.155738,156.5 333.815574,153 C349.321721,138.2 359.723361,132.7 378.504098,129.6 C385.245902,128.5 406.723361,128.2 419.05123,129.1 C440.817623,130.6 442.840164,130.9 454.204918,133.2 C458.153689,134 462.487705,134.8 463.739754,135.1 C468.170082,136 485.506148,141.7 489.55123,143.7 C491.862705,144.7 493.981557,145.6 494.270492,145.6 C495.42623,145.6 515.362705,156 515.651639,156.8 C515.844262,157.2 516.422131,157.6 516.903689,157.6 C518.059426,157.6 528.75,164.5 536.55123,170.3 C564.288934,190.8 581.817623,209.7 594.723361,232.9 C598.768443,240.3 600.983607,244.7 604.932377,254.1 C609.170082,263.8 616.875,291.4 618.512295,302.6 C618.80123,304.5 619.186475,307.2 619.47541,308.6 C620.053279,311.6 620.631148,315.6 621.305328,321.6 C621.594262,324.1 621.979508,327.7 622.268443,329.6 C622.942623,334.2 623.616803,344.3 624.194672,358.6 C624.965164,375.5 625.639344,379.5 629.106557,386.7 C631.89959,392.5 637.10041,397.7 643.071721,400.6 C645.672131,401.9 647.983607,403.8 648.272541,404.8 C648.657787,405.9 647.598361,408.8 645.479508,412.3 C639.411885,422.6 639.893443,427.9 647.309426,433.5 C649.620902,435.2 651.739754,436.6 652.028689,436.6 C652.413934,436.6 655.39959,438.4 658.67418,440.6 C662.622951,443.1 665.512295,445.9 666.860656,448.5 C669.557377,453.4 670.905738,453.2 678.610656,446 C685.159836,440 687.278689,439.5 693.635246,442.5 C696.909836,444 698.065574,444.2 699.895492,443.2 C702.784836,441.8 710.104508,430.4 711.452869,425.4 C713.571721,417.2 712.223361,409.1 707.793033,404 C702.977459,398.4 701.243852,396.2 697.776639,390.6 C689.686475,377.8 683.329918,361.3 679.477459,343.1 C678.321721,337.6 676.491803,331.3 675.432377,329.1 C671.483607,321 661.467213,313.6 647.309426,308.6 C639.797131,305.9 634.5,302.3 634.114754,299.4 C633.922131,298.1 634.5,294.4 635.366803,291.1 C636.42623,286.9 636.811475,282.8 636.522541,277.6 C636.233607,273.5 636.040984,265.2 636.040984,259.1 C635.944672,249.5 636.233607,247.4 638.352459,242.6 C642.397541,233.5 647.694672,228.8 659.540984,224.2 C667.245902,221.3 671.002049,216.8 671.67623,209.7 C671.965164,205.9 671.579918,203.6 670.038934,200.2 C666.668033,193.1 662.719262,192.7 652.702869,198.2 C647.502049,201.1 646.25,201.4 644.805328,200.4 C643.842213,199.7 640.182377,193.3 636.618852,186.1 C622.942623,158.3 603.872951,131.9 577.965164,105.1 C560.340164,86.7 557.45082,83.9 544.256148,72.6 C539.536885,68.5 535.395492,64.9 535.106557,64.6 C534.721311,64.1 529.809426,60.1 512.473361,46.1 C508.909836,43.2 464.991803,8.9 461.331967,6.1 C459.790984,5 457.57582,3.2 456.32377,2.1 L454.012295,0 L696.717213,0.1 C830.204918,0.1 939.711066,0.3 939.903689,0.6 C940.192623,0.9 939.711066,2.1 938.844262,3.3 C937.303279,5.5 935.184426,6.1 913.129098,11.1 C912.069672,11.3 908.409836,12.2 904.942623,13.1 C901.47541,14 897.911885,14.9 896.94877,15.1 C895.985656,15.3 891.940574,16.5 887.79918,17.6 C883.754098,18.8 879.709016,19.9 878.938525,20.1 C870.752049,21.8 822.211066,37.3 787.153689,49.2 C760.379098,58.4 756.719262,60 748.918033,66.4 C738.805328,74.7 733.893443,82.6 730.715164,95.8 C728.114754,106.6 725.032787,111.8 715.112705,122.1 C710.297131,127.1 705.288934,133.1 703.844262,135.5 C699.028689,144 700.473361,155.9 707.985656,168.1 C714.14959,178.1 722.432377,182.8 733.122951,182.3 L738.034836,182 L734.856557,189.1 C729.366803,201 728.403689,211.8 731.678279,224.6 C733.508197,232.1 733.219262,237 730.42623,247.1 C728.5,254.1 727.82582,264.7 728.981557,271.6 C731.485656,286.7 731.389344,296.6 728.788934,304.6 C727.151639,309.7 727.151639,310.3 728.596311,313 C730.715164,317 733.508197,319 752.770492,330.7 C790.717213,353.7 819.418033,375.9 843.303279,400.6 C856.979508,414.8 859.67623,417.9 867.092213,428.6 C876.530738,442.2 884.139344,456.1 891.940574,474.1 C898.104508,488.3 907.928279,523.6 909.372951,536.6 C909.565574,538.5 909.854508,541 910.143443,542.2 C910.336066,543.4 910.913934,547.9 911.29918,552.2 C911.588115,556.5 912.069672,561.5 912.262295,563.1 C912.840164,568.4 912.840164,595.9 912.165984,603.1 C910.817623,617.9 910.047131,624.2 908.795082,629.6 C907.735656,633.7 906.965164,638.1 906.387295,641.8 C906.194672,643.3 905.520492,645.5 904.942623,646.6 C904.364754,647.7 904.172131,648.6 904.364754,648.6 C905.42418,648.6 897.237705,671 893,679.6 C875.567623,715.5 844.844262,743.9 806.897541,759.1 C799.577869,762 785.131148,766.8 779.737705,768.1 C771.743852,770 753.059426,773.6 748.436475,774.2 C745.258197,774.5 741.887295,775 740.92418,775.2 C739.961066,775.3 735.241803,775.8 730.329918,776.2 C725.418033,776.5 720.602459,777 719.543033,777.3 C718.483607,777.6 698.932377,778 676.010246,778.1 L634.403689,778.4 L630.262295,780.9 C625.061475,784 623.616803,786.1 607.918033,812.6 C600.983607,824.4 589.811475,842.9 583.262295,853.6 C576.713115,864.3 570.452869,874.6 569.297131,876.4 C545.893443,915.5 519.504098,933.1 481.364754,935.1 C476.741803,935.4 474.911885,935.9 473.94877,937.3 C472.793033,938.9 470.866803,939.1 454.30123,939.2 C444.284836,939.2 435.616803,939 435.231557,938.6 L435.231557,938.6 Z M412.213115,598.8 C415.872951,593.5 421.266393,588.1 432.342213,578.6 C443.706967,568.7 449.485656,560.7 452.375,550.7 C453.915984,545.3 455.745902,544.5 463.258197,546.4 C472.311475,548.6 489.454918,548.5 510.547131,546.1 C525.764344,544.4 524.704918,544.4 524.030738,546.8 C523.163934,549.6 523.645492,549.2 515.362705,555.1 C506.790984,561.2 504.479508,563.4 502.64959,567 C500.530738,571.3 500.338115,574 501.782787,577.8 C503.709016,582.5 506.598361,584.9 510.836066,585.3 C515.362705,585.6 518.829918,584.5 530.098361,578.9 C538.862705,574.5 539.151639,574.5 541.077869,576.3 C542.811475,577.9 542.907787,578.9 542.42623,585.8 C541.944672,592.9 542.040984,593.7 544.159836,596.3 C546.182377,598.7 547.145492,599.1 551.672131,599 C560.05123,599 567.081967,594.3 573.438525,584.4 C580.565574,573.6 587.885246,568.3 598.479508,566.6 C605.028689,565.5 608.014344,562.5 611.192623,553.7 C612.348361,550.6 613.696721,547.2 614.081967,546.1 C616.20082,540.6 620.727459,525.7 621.401639,521.6 C621.690574,520.2 622.364754,517.1 622.942623,514.6 C624.965164,505.4 625.735656,487.1 624.483607,477.6 C623.42418,470.4 619.956967,459.6 616.297131,452.6 C613.311475,446.8 605.221311,435 603.295082,433.6 C602.909836,433.3 601.657787,430.8 600.502049,428.1 C598.479508,423.4 598.190574,421.1 597.32377,401.6 C596.745902,389.7 591.834016,373 584.89959,359.1 C577.483607,344.2 562.747951,325.6 548.397541,312.8 C542.329918,307.5 532.217213,300.6 530.002049,300.4 C528.846311,300.3 527.016393,300.2 525.956967,300.1 C521.237705,299.7 516.711066,304 511.991803,313.1 C495.811475,344.4 474.141393,366.9 453.723361,373.6 C451.604508,374.3 449.485656,375.2 448.907787,375.6 C448.42623,376 446.211066,376.9 444.092213,377.6 C439.372951,379.1 428.489754,385.1 425.793033,387.6 C423.288934,390 416.45082,393.5 404.893443,398.4 C391.409836,404.2 385.631148,408.5 379.467213,417.7 C370.413934,431.1 361.745902,436.9 350.766393,436.9 C344.506148,436.9 337.956967,434.6 337.090164,432.2 C336.80123,431.4 337.860656,428.7 339.594262,426.1 C349.995902,410.4 346.721311,400.2 326.014344,384.4 C301.840164,366 284.504098,342.9 274.680328,316.1 C273.235656,312.3 271.020492,307.8 269.672131,306.2 L267.168033,303.2 L265.338115,305.7 C262.159836,309.8 255.89959,323.8 254.358607,329.9 C253.588115,333.1 252.721311,339 252.336066,342.9 C251.180328,354.9 252.047131,503 253.395492,525.1 C254.069672,537.3 258.114754,550.5 263.122951,557.3 C267.168033,562.8 276.895492,568.6 284.407787,570.1 C285.94877,570.4 287.971311,570.8 289.030738,571 C293.846311,572 304.536885,572.6 305.5,571.9 C306.944672,570.8 308.581967,564.7 308.10041,561.8 C307.522541,557.7 305.114754,555.3 297.409836,551.1 C293.364754,548.9 288.452869,546 286.719262,544.7 C282,541.2 279.206967,533.9 278.436475,523.2 L277.762295,514.2 L282.385246,518.3 C293.172131,527.5 302.610656,533.3 312.338115,536.6 C319.079918,538.9 329.770492,540 334.875,538.9 C338.631148,538.2 343.928279,532.5 344.891393,528.4 C346.336066,521.7 346.432377,519.8 346.528689,503.9 L346.625,487.7 L349.321721,489.3 C353.270492,491.7 356.641393,495.2 359.530738,499.8 C362.227459,504 362.420082,505.9 361.745902,522.1 C361.360656,530 362.805328,534.9 367.620902,542.7 C369.836066,546.2 371.858607,549.3 372.243852,549.6 C372.532787,549.9 374.555328,552.3 376.67418,555.1 C378.793033,557.8 381.20082,560.8 382.067623,561.7 C388.905738,568.8 394.588115,581.5 395.069672,590.9 C395.647541,599.4 396.89959,602.5 400.655738,604.1 C404.797131,605.9 408.264344,604.3 412.213115,598.8 L412.213115,598.8 Z M397.862705,341.4 C400.559426,340.8 407.879098,338.6 414.235656,336.4 C420.495902,334.2 426.178279,332.3 426.756148,332.1 C427.237705,332 429.54918,331.4 431.764344,330.8 C436.579918,329.3 453.434426,325.6 457.768443,325 C472.889344,323 484.928279,311.8 492.922131,292.3 C498.026639,279.9 496.581967,272.6 488.684426,270.9 C486.372951,270.4 471.155738,270.1 454.686475,270.1 C429.452869,270.2 423.770492,270.5 418.088115,272 C411.346311,273.8 400.559426,279.2 396.89959,282.6 C392.854508,286.3 388.520492,287.9 383.80123,287.3 C378.311475,286.6 375.133197,284.9 369.932377,280.1 C365.116803,275.6 355.967213,271 350.092213,270.2 C342.194672,269 336.127049,269.2 322.258197,271.2 C312.241803,272.6 304.247951,278.2 301.936475,285.3 C301.358607,287.2 300.877049,291.1 300.780738,293.9 C300.491803,313.2 308.293033,323.9 323.510246,325.1 C338.727459,326.3 348.165984,328.8 356.256148,333.8 C361.553279,337 369.932377,340.4 374.747951,341.3 C376.385246,341.6 377.733607,341.9 377.92623,342.1 C378.696721,342.8 393.528689,342.3 397.862705,341.4 L397.862705,341.4 Z" id="Shape"></path>
            <path d="M396.995902,439.8 C396.803279,439.7 394.29918,439.5 391.313525,439.4 C385.14959,439.2 385.14959,438.4 390.928279,434 C398.536885,428.2 402.870902,426.4 409.32377,426.5 C416.45082,426.7 426.27459,428.7 426.467213,430.1 C426.756148,432.2 418.569672,437.5 413.17623,438.6 C408.071721,439.7 397.57377,440.5 396.995902,439.8 L396.995902,439.8 Z" id="Shape"></path>
            <path d="M328.807377,104.7 C328.711066,104.2 319.17623,93.7 307.715164,81.4 C296.254098,69.1 283.92623,55.9 280.266393,52 C276.606557,48 264.567623,35 253.395492,23.1 C242.319672,11.2 233.07377,1.1 232.881148,0.7 C232.784836,0.4 261.10041,0.1 295.772541,0.1 C337.860656,0.1 358.856557,0.4 358.856557,1.1 C358.760246,2.6 357.508197,7.8 353.559426,21.6 C351.633197,28.5 349.418033,36.4 348.743852,39.1 C347.973361,41.9 344.313525,55.4 340.557377,69.1 C333.430328,95 330.92623,104.4 330.92623,105.1 C330.92623,106 329.192623,105.6 328.807377,104.7 L328.807377,104.7 Z" id="Shape"></path>
            <path d="M462.391393,73.6 C441.29918,68.3 436.483607,65.4 435.038934,57.4 C434.653689,54.8 434.364754,52.5 434.557377,52.4 C434.75,52.2 435.135246,50.5 435.42418,48.6 C436.387295,42.2 437.061475,39.6 437.543033,39.6 C438.69877,39.6 450.44877,48.8 454.493852,52.8 C456.805328,55.2 460.272541,59.3 462.295082,62 C465.762295,66.8 470.096311,74.6 469.422131,75 C469.229508,75.1 466.147541,74.5 462.391393,73.6 L462.391393,73.6 Z" id="Shape"></path>
        </g>
    </g>
</svg>